HIERARCHY
ROOT Hips
{
	OFFSET 0.000000 0.000000 0.000000
	CHANNELS 6 Xposition Yposition Zposition Zrotation Yrotation Xrotation 
	JOINT LHipJoint
	{
		OFFSET 0.000000 0.000000 0.000000
		CHANNELS 3 Zrotation Yrotation Xrotation
		JOINT LeftUpLeg
		{
			OFFSET 1.363060 -1.794630 0.839290
			CHANNELS 3 Zrotation Yrotation Xrotation
			JOINT LeftLeg
			{
				OFFSET 2.448110 -6.726130 0.000000
				CHANNELS 3 Zrotation Yrotation Xrotation
				JOINT LeftFoot
				{
					OFFSET 2.562200 -7.039590 0.000000
					CHANNELS 3 Zrotation Yrotation Xrotation
					JOINT LeftToeBase
					{
						OFFSET 0.157640 -0.433110 2.322550
						CHANNELS 3 Zrotation Yrotation Xrotation
						End Site
						{
							OFFSET 0.000000 0.000000 0.000000
						}
					}
				}
			}
		}
	}
	JOINT RHipJoint
	{
		OFFSET 0.000000 0.000000 0.000000
		CHANNELS 3 Zrotation Yrotation Xrotation
		JOINT RightUpLeg
		{
			OFFSET -1.305520 -1.794630 0.839290
			CHANNELS 3 Zrotation Yrotation Xrotation
			JOINT RightLeg
			{
				OFFSET -2.542530 -6.985550 0.000000
				CHANNELS 3 Zrotation Yrotation Xrotation
				JOINT RightFoot
				{
					OFFSET -2.568260 -7.056230 0.000000
					CHANNELS 3 Zrotation Yrotation Xrotation
					JOINT RightToeBase
					{
						OFFSET -0.164730 -0.452590 2.363150
						CHANNELS 3 Zrotation Yrotation Xrotation
						End Site
						{
							OFFSET 0.000000 0.000000 0.000000
						}
					}
				}
			}
		}
	}
	JOINT LowerBack
	{
		OFFSET 0.000000 0.000000 0.000000
		CHANNELS 3 Zrotation Yrotation Xrotation
		JOINT Spine
		{
			OFFSET 0.028270 2.035590 -0.193380
			CHANNELS 3 Zrotation Yrotation Xrotation
			JOINT Spine1
			{
				OFFSET 0.056720 2.048850 -0.042750
				CHANNELS 3 Zrotation Yrotation Xrotation
				JOINT Neck
				{
					OFFSET 0.000000 0.000000 0.000000
					CHANNELS 3 Zrotation Yrotation Xrotation
					JOINT Neck1
					{
						OFFSET -0.054170 1.746240 0.172020
						CHANNELS 3 Zrotation Yrotation Xrotation
						JOINT Head
						{
							OFFSET 0.104070 1.761360 -0.123970
							CHANNELS 3 Zrotation Yrotation Xrotation
							End Site
							{
								OFFSET 0.000000 0.000000 0.000000
							}
						}
					}
				}
				JOINT LeftShoulder
				{
					OFFSET 0.000000 0.000000 0.000000
					CHANNELS 3 Zrotation Yrotation Xrotation
					JOINT LeftArm
					{
						OFFSET 3.362410 1.200890 -0.311210
						CHANNELS 3 Zrotation Yrotation Xrotation
						JOINT LeftForeArm
						{
							OFFSET 4.983000 -0.000000 -0.000000
							CHANNELS 3 Zrotation Yrotation Xrotation
							JOINT LeftHand
							{
								OFFSET 3.483560 -0.000000 -0.000000
								CHANNELS 3 Zrotation Yrotation Xrotation
								JOINT LeftFingerBase
								{
									OFFSET 0.000000 0.000000 0.000000
									CHANNELS 3 Zrotation Yrotation Xrotation
									JOINT LeftHandIndex1
									{
										OFFSET 0.715260 -0.000000 -0.000000
										CHANNELS 3 Zrotation Yrotation Xrotation
										End Site
										{
											OFFSET 0.000000 0.000000 0.000000
										}
									}
								}
								JOINT LThumb
								{
									OFFSET 0.000000 0.000000 0.000000
									CHANNELS 3 Zrotation Yrotation Xrotation
									End Site
									{
										OFFSET 0.000000 0.000000 0.000000
									}
								}
							}
						}
					}
				}
				JOINT RightShoulder
				{
					OFFSET 0.000000 0.000000 0.000000
					CHANNELS 3 Zrotation Yrotation Xrotation
					JOINT RightArm
					{
						OFFSET -3.136600 1.374050 -0.404650
						CHANNELS 3 Zrotation Yrotation Xrotation
						JOINT RightForeArm
						{
							OFFSET -5.241900 -0.000000 -0.000000
							CHANNELS 3 Zrotation Yrotation Xrotation
							JOINT RightHand
							{
								OFFSET -3.444170 -0.000000 -0.000000
								CHANNELS 3 Zrotation Yrotation Xrotation
								JOINT RightFingerBase
								{
									OFFSET 0.000000 0.000000 0.000000
									CHANNELS 3 Zrotation Yrotation Xrotation
									JOINT RightHandIndex1
									{
										OFFSET -0.622530 -0.000000 -0.000000
										CHANNELS 3 Zrotation Yrotation Xrotation
										End Site
										{
											OFFSET 0.000000 0.000000 0.000000
										}
									}
								}
								JOINT RThumb
								{
									OFFSET 0.000000 0.000000 0.000000
									CHANNELS 3 Zrotation Yrotation Xrotation
									End Site
									{
										OFFSET 0.000000 0.000000 0.000000
									}
								}
							}
						}
					}
				}
			}
		}
	}
}
MOTION
Frames: 5
Frame Time: 0.008333
4.393681 20.742050 0.828402 21.436036 80.615453 -7.156616 57.457478 17.973773 5.543579 -101.253363 -2.663986 28.168603 17.946843 7.838723 60.053694 6.267168 -12.272154 -80.114009 3.215700 11.036300 32.402500 -71.104702 -21.571186 6.984896 104.612212 2.853253 30.646753 -17.452475 -6.536992 61.128629 -2.790108 16.757882 -76.850734 -0.437400 4.244100 -11.764300 -6.905966 4.315054 -12.420553 -3.743968 1.587953 103.709285 10.201354 3.833729 -22.204386 1.488189 2.044930 -33.861212 -5.550996 2.469498 -23.268862 1.242800 1.326300 4.407000 10.571512 14.074754 -3.297753 -116.377174 -7.084427 14.299936 42.089823 -61.362183 -2.299879 9.584490 26.413763 3.317867 24.946417 68.527105 12.056600 -7.125000 0.000000 0.000000 -33.294600 72.333700 -22.310300 -7.789708 -8.300824 -3.276765 111.362488 4.339775 0.542859 -51.489864 63.987146 -4.913942 -4.169721 6.934589 7.028060 -25.669775 35.296410 -10.572300 7.125000 0.000000 0.000000 5.956300 1.238400 6.116600 
4.388243 20.743496 0.832876 20.866438 80.915567 -7.595145 57.634077 18.055647 5.664104 -101.207696 -2.889912 28.085700 17.871602 7.705061 60.232319 6.119692 -12.821005 -80.036671 3.259900 11.104300 32.632500 -71.043456 -21.573544 7.079277 104.737977 2.890618 30.601983 -17.516811 -6.635130 61.000227 -2.910975 16.426801 -76.903726 -0.498100 4.524600 -12.557500 -7.332249 4.227733 -12.338493 -2.713367 0.681164 103.766610 9.649610 3.446709 -22.428789 0.571744 1.842549 -33.812747 -4.439013 2.694033 -23.874305 1.351400 1.350500 4.360700 10.474380 13.933807 -3.351493 -116.514533 -7.030234 14.024743 42.029245 -61.453962 -2.288128 9.631594 26.409413 3.640350 24.715053 68.811217 12.010600 -7.125000 0.000000 0.000000 -33.907100 72.455300 -22.833000 -7.774261 -8.465520 -3.344493 111.195284 4.257962 0.711628 -51.699982 64.065895 -5.008152 -4.216523 6.752987 6.684395 -25.604063 34.805043 -10.433400 7.125000 0.000000 0.000000 5.946700 0.879400 6.069800 
4.384870 20.744253 0.837970 20.691843 81.171014 -7.609056 57.742773 18.116450 5.732102 -101.207795 -3.106554 27.988928 17.807696 7.616209 60.367335 6.022833 -13.217021 -80.000296 3.297700 11.162100 32.828600 -71.037808 -21.647248 7.160328 104.838720 2.924908 30.580194 -17.579437 -6.717860 60.872646 -2.995316 16.111750 -76.934707 -0.517700 4.611400 -12.803400 -6.770706 4.570113 -11.716351 -2.926186 0.993467 103.697492 9.956368 3.780805 -23.437298 0.509886 1.653571 -34.663212 -3.893736 2.657664 -22.068016 1.416000 1.290800 4.445400 10.632375 14.258286 -3.628381 -117.688988 -7.838336 13.246983 40.510973 -60.384902 -1.617742 10.902414 26.555838 6.044964 24.981914 69.444568 12.038100 -7.125000 0.000000 0.000000 -34.509200 72.636000 -23.394500 -7.739058 -8.681350 -3.264911 111.081472 3.857860 0.469572 -51.893095 64.147436 -5.065940 -4.247546 6.691546 6.468978 -25.566499 34.710411 -10.396700 7.125000 0.000000 0.000000 5.966000 0.827000 6.084400 
4.384457 20.744116 0.843408 20.493449 81.281506 -7.830223 57.856815 18.155940 5.831705 -101.148100 -3.150028 27.974621 17.747069 7.525247 60.459576 5.935750 -13.602564 -79.971557 3.301200 11.167400 32.846600 -70.980088 -21.499065 7.242774 104.928349 2.983180 30.527004 -17.724009 -6.767785 60.794815 -3.123543 15.599422 -76.907254 -0.497400 4.521500 -12.548700 -6.980066 4.221660 -12.574798 -2.909990 0.774651 103.799782 9.468779 3.426847 -22.391084 0.320789 1.723892 -33.456228 -3.263529 2.880448 -23.743107 1.390300 1.336400 4.347100 10.647288 13.808127 -3.294598 -116.383501 -6.702750 13.872771 42.432650 -61.382994 -2.303030 9.805909 26.372613 3.703740 25.639849 69.052741 12.655000 -7.125000 0.000000 0.000000 -33.960900 73.040100 -23.284000 -7.751454 -8.287732 -3.295022 111.330372 4.149577 0.598461 -51.680265 63.922515 -4.957963 -4.197575 6.793382 6.752902 -25.486982 34.885418 -10.386700 7.125000 0.000000 0.000000 6.014300 0.896900 6.141400 
4.383906 20.743083 0.846988 20.549804 81.514514 -7.785711 57.905661 18.162158 5.768619 -101.118264 -3.158456 28.005714 17.672943 7.506327 60.488474 5.853580 -13.922736 -79.933350 3.272700 11.124000 32.699100 -70.926269 -21.469606 7.293490 104.970703 3.003394 30.562584 -17.763267 -6.863316 60.757273 -3.187330 15.297369 -76.927228 -0.425900 4.188200 -11.606800 -7.038431 4.339216 -11.819173 -2.615502 0.537501 103.817345 9.623445 3.512797 -23.731854 0.545436 1.619331 -34.204023 -3.762623 2.771384 -21.655789 1.404500 1.321700 4.378000 10.575989 13.848611 -3.314363 -116.779094 -6.384317 13.409400 42.200748 -60.977469 -2.175442 10.757032 26.113180 4.257995 27.692704 68.012129 13.467300 -7.125000 0.000000 0.000000 -31.090400 73.034200 -21.207500 -7.957348 -8.278758 -3.203421 111.183446 3.567824 0.618515 -51.887323 63.837523 -4.972908 -4.194900 6.803781 6.765704 -25.448979 34.940686 -10.380600 7.125000 0.000000 0.000000 6.043100 0.938600 6.175500 
